<?xml version="1.0" encoding="UTF-8"?>
<svg id="Layer_2" data-name="Layer 2" xmlns="http://www.w3.org/2000/svg" xmlns:xlink="http://www.w3.org/1999/xlink" viewBox="0 0 1031.48 297.44">
  <defs>
    <style>
      .cls-1 {
        filter: url(#outer-glow-2);
      }

      .cls-2, .cls-3 {
        fill: none;
      }

      .cls-3 {
        stroke: #3eff67;
        stroke-miterlimit: 10;
        stroke-width: 4.2px;
      }

      .cls-4 {
        filter: url(#outer-glow-1);
      }

      .cls-5 {
        fill: #339636;
      }
    </style>
    <filter id="outer-glow-1" x=".69" y="-9.73" width="1038" height="207" filterUnits="userSpaceOnUse">
      <feOffset dx="0" dy="0"/>
      <feGaussianBlur result="blur" stdDeviation="6"/>
      <feFlood flood-color="#97ffad" flood-opacity=".85"/>
      <feComposite in2="blur" operator="in"/>
      <feComposite in="SourceGraphic"/>
    </filter>
    <filter id="outer-glow-2" x="-7.31" y="181.27" width="1043" height="124" filterUnits="userSpaceOnUse">
      <feOffset dx="0" dy="0"/>
      <feGaussianBlur result="blur-2" stdDeviation="6"/>
      <feFlood flood-color="#97ffad" flood-opacity=".85"/>
      <feComposite in2="blur-2" operator="in"/>
      <feComposite in="SourceGraphic"/>
    </filter>
  </defs>
  <g id="Layer_1-2" data-name="Layer 1">
    <g>
      <g>
        <path class="cls-5" d="M89.48,60.67c11.54-14.43,25.47-32.94,26.82-36.16l1.02-2.21c-7.47,1.53-11.88,3.74-15.79,10.19-2.21,3.23-4.24,8.15-5.94,14.26-1.19,3.57-3.06,5.43-5.94,5.43-3.23,0-7.81-2.21-9-5.94-.68-1.87-1.02-3.9-1.02-6.28,0-2.04.51-6.45,2.04-11.2.51-2.21,1.19-3.74,1.7-4.41.68-.85,1.36-1.53,2.72-1.53.85,0,2.38.34,4.24,1.02,1.7.68,3.39,1.02,5.26,1.02,1.19,0,4.07-.68,8.49-2.04s9.68-3.23,15.96-5.94c.85-1.19,1.7-1.87,2.55-2.04l1.87-.85c.51,0,2.04-.51,3.06-.68.51,0,1.02,0,1.53.17.85.17,1.7.51,2.38,1.19l1.7,1.36c2.55,2.04,5.43,4.58,6.62,7.64.17.51.34,1.19.34,2.04,0,1.19-.17,2.04-.68,2.72-.85,2.21-2.38,4.07-4.41,5.6-1.87,1.36-3.06,2.55-3.57,3.57,0,.51-2.04,3.23-5.6,7.98,1.7-.51,3.23-.85,4.41-.85,5.09,0,9.68,3.23,11.54,6.96.34.85.51,1.7.51,2.55,0,1.19-.34,2.21-1.19,2.89-2.72,3.57-6.62,4.92-10.87,4.92-1.87,0-6.79,1.36-14.6,3.73l.51,8.15c4.07-1.53,7.81-2.21,10.53-2.21,5.26,0,8.32,3.23,8.32,7.98,0,2.89-2.04,6.45-3.57,7.3-3.06,2.21-10.36,4.75-14.26,4.58l.34,9.34,5.77-1.53c12.73-3.4,19.18-4.92,24.62-4.92,6.45,0,11.03,3.06,13.75,7.47,1.53,2.38,2.21,4.41,2.21,6.45,0,1.19-.34,2.21-.85,3.06-2.21,3.57-5.09,5.43-8.66,5.43-1.19,0-2.38-.34-3.9-.85-3.4-1.87-11.54-2.89-20.2-2.89-4.58,0-8.66.17-12.39.68l.17,7.13c0,16.13-1.19,23.94-5.94,39.39-2.21,7.98-4.24,12.39-6.11,13.41-.85.51-1.53.68-2.21.68-1.02,0-2.38-.68-3.57-1.87-1.87-1.87-3.06-5.26-3.57-10.7-.51-6.28-1.02-20.37-1.53-42.1-12.56,4.07-20.54,6.96-24.11,8.49l-2.04.85c-1.7,1.02-3.23,1.7-4.41,2.04-.85.17-1.53.34-1.87.34-1.87,0-4.75-1.7-7.47-4.92-.85,10.36-1.19,16.64-1.02,18.5.51,5.77-1.53,10.87-5.43,10.87-1.19,0-2.21-.34-3.23-1.02-6.62-4.58-12.05-12.39-11.37-18.84l-1.87-7.13c-6.62-22.24-9.85-34.8-10.19-37.86-.51-1.87-.85-4.24-.85-6.79,0-4.58.85-7.13,2.55-7.64l2.04-.68c10.36-16.64,15.62-26.99,15.62-31.24,0-1.87-.34-3.91-.85-6.45-.51-1.36-1.19-3.9-1.19-4.75,0-.68.17-1.53.51-2.38,1.7-2.04,4.24-3.06,7.47-3.06,1.53,0,3.06.17,4.41.68l5.77,2.72c4.58,2.21,10.19,6.11,12.9,10.87.51,1.36.85,2.55.85,3.57,0,2.55-1.53,6.28-3.73,8.32-2.38,2.04-5.77,2.55-7.64,2.55-1.19,0-2.04-.17-2.55-.34-2.55-.51-3.91-1.02-4.41-1.36l-.68-.34c-.17.17-.34.17-.85,0-2.21-.51-7.13,2.04-10.36,5.6-1.53,1.87-3.06,3.74-4.41,5.94-3.23,5.43-5.43,9-6.62,10.7,10.02,3.39,14.77,10.53,14.77,17.15,0,3.23-1.02,5.6-2.89,6.45-.17.17-.68.34-1.53.68-.17.17-.68.34-1.19.51-1.36.68-2.04,1.19-2.89,2.38-1.36,1.53-2.21,4.41-2.21,8.49,0,4.41,1.36,9.34,4.24,14.77,5.77-9.17,17.15-30.22,20.71-37.52,2.04-4.58,4.24-7.81,6.62-10.36.34-.51.68-.68.85-.68s.17.51-.17,1.36c-.17.17-1.02,2.38-2.55,6.11l-1.87,4.75c-2.21,5.77-3.9,10.7-4.92,14.6-.68,2.38-1.02,4.41-1.02,5.94v1.36c0,1.53,0,2.89-.17,4.07,1.36-.17,2.21-.34,2.38-.17s10.02-2.55,30.22-7.98c-.34.17,1.7-.51,6.45-1.87,0-3.4,0-6.11-.17-7.98-1.87.85-3.57,1.36-5.09,1.36-5.26,0-10.36-4.07-11.54-8.83-.17-.34-.17-.68-.17-1.19,0-1.53.85-2.38,2.55-2.72,2.38-.68,7.13-2.55,14.09-5.26,0-3.57,0-5.94.17-7.13-4.41,2.21-7.81,3.06-10.7,3.06-1.19,0-2.21-.34-3.4-.68-4.07-2.89-5.94-4.75-7.3-7.13-.34-.51-.51-1.19-.51-1.7,0-.85.34-1.53,1.02-2.21,1.02-1.02,2.89-2.04,5.94-2.89,3.06-.68,6.45-1.7,9.68-3.06Z"/>
        <path class="cls-5" d="M280.3,35.04c.17,1.7.34,4.58.85,7.98,10.53-5.94,17.32-9.34,23.94-9.34,3.74.17,7.98,3.74,7.98,8.49,0,3.57-2.55,6.79-5.43,7.3-4.58.85-12.56,3.57-23.94,8.32,3.23,13.41,8.32,23.09,15.45,29.2,5.43,4.75,9.85,8.15,13.75,10.36,3.06,1.7,5.09,2.21,5.94,1.7.68-.51,1.02-1.36,1.19-2.55.51-2.72,1.87-6.62,4.07-11.71.85-1.7,1.53-2.55,1.87-2.55s.51.68.51,2.04c-.34,12.05.68,19.35,3.06,22.07,1.87,2.04,2.72,5.43,2.72,8.49,0,4.75-1.36,5.26-3.91,5.94-1.36.51-2.89.68-4.58.68-3.23,0-6.28-.68-9-2.04-1.7-1.02-3.23-2.04-4.41-3.06-3.4-2.21-10.53-7.47-15.79-12.56-5.94-5.77-12.56-13.92-16.98-21.73l-13.92,17.15,2.55-1.02.34-.17h.34c6.11,0,18,2.04,21.05,4.92,2.72,2.72,4.58,7.64,4.58,11.54,0,3.23-1.02,4.75-2.89,4.75l-2.04-.68c-3.06-1.36-7.81-3.91-14.43-7.47-1.53,5.26-3.74,9.51-6.28,12.9l.17,5.43c2.89-.34,5.6-.51,7.64-.51,10.87,0,18.34,3.57,26.99,11.71,3.57,3.06,5.26,5.94,5.26,8.32,0,3.39-3.23,5.6-6.96,6.79-.85.34-1.7.51-2.55.51-1.87,0-3.23-.51-4.41-1.53-2.89-2.89-16.98-12.22-25.64-17.32l1.02,25.13c-1.19,5.09-3.23,8.32-6.28,10.19-2.21,1.53-3.74,2.38-4.92,2.38-2.21,0-3.74-2.89-6.45-8.32-2.89-5.26-5.09-8.66-7.47-10.19l-7.98-5.26-2.89-1.87c-1.02,5.77-1.7,8.83-1.87,9.34-1.02,3.06-4.58,5.26-7.13,5.26-1.53,0-2.72-.51-3.06-.85l-1.02-1.19c-2.21-2.72-5.26-7.47-6.11-11.54-.17-1.19-.34-1.87-.34-2.21,0-3.23,1.19-5.43,6.62-7.81,1.87-.51,3.9-1.19,6.45-1.7,2.55-.85,7.13-4.58,13.58-10.7-.85-1.53-1.19-3.23-1.19-4.75s.51-2.89,1.36-3.74,1.87-2.21,2.89-3.74c-1.19.17-2.04.34-2.55.34-4.75,0-9-3.23-12.73-9.51-1.19-1.7-1.7-3.06-1.7-4.24,0-.85.34-1.53,1.02-2.04,2.55-1.53,5.26-3.57,8.49-6.11,1.87-1.53,6.28-7.47,13.07-17.66-14.43,8.15-22.58,13.07-24.62,15.11-8.83,9-15.62,13.58-20.54,13.58-.85,0-1.53-.17-2.38-.51-4.75-2.04-8.32-5.77-8.32-8.32,0-2.21,1.87-3.23,4.58-4.58,1.19-.34,2.55-1.02,4.24-1.87l12.22-7.13c-.51-14.09-1.19-22.07-2.38-23.94-.51-.68-1.53-2.38-1.53-2.55-.51-.51-1.36-2.04-1.53-2.55-.51-.85-.85-1.87-.85-2.72,0-1.87,1.19-1.7,2.89-1.7,3.4,0,8.32,1.7,11.71,3.57,1.53,1.02,2.21,2.21,2.21,3.06,0,1.36,0,7.98.51,20.37l7.13-4.24c-1.7-3.74-2.55-6.62-2.38-8.66.17-.51.17-2.21.17-4.92l.17-4.75.34-13.92v-6.45c-1.19-2.89-2.38-5.09-3.9-6.28-.34-.51-.51-1.19-.51-1.87,0-1.19.68-2.38,1.87-3.23,1.19-.51,2.21-.85,3.23-.85,3.23,0,10.53,3.23,15.11,6.79,2.21,1.7,3.23,3.23,2.89,4.41-.51,1.87-1.02,4.75-1.19,9,3.23-2.04,5.09-3.23,5.94-3.39l2.21-1.19c2.21-1.19,3.74-1.7,4.75-1.7,2.72,0,4.07,2.89,4.07,6.79,0,3.4-1.36,6.62-3.9,7.3-7.81,3.57-12.39,5.77-13.75,6.45,0,3.06,0,5.77-.17,7.64l14.43-8.49c4.75-2.72,6.96-4.07,6.79-3.9-1.02-7.81-1.53-14.09-1.53-18.84,0-6.28.51-10.36,1.36-12.05l1.19-2.72c0-.17,0-.34.17-.51,0-1.36,1.7-4.75,3.23-5.6.51-.17.85-.34.85-.34.85,0,1.53.34,2.38,1.19,6.45,6.28,9.51,10.19,8.66,12.05-.85,1.87-1.87,3.57-3.06,4.92-.34.34-.51,1.02-.68,1.87l-.17,1.87.17,2.21ZM249.06,137.24c-3.23,0-5.26-2.55-6.62-4.58-.85-1.02-1.36-1.7-1.53-2.04-4.75,4.75-6.62,9.51-8.15,16.13,8.83,2.04,14.94,3.23,18.17,3.23.85,0,1.36-.17,1.36-.51-.17-1.02-.17-5.26-.17-13.07-1.19.51-2.21.85-3.06.85ZM270.45,64.24l-7.47,4.24-3.9,2.04c3.57,3.06,5.26,5.43,5.26,7.13,0,.34-.17.85-.51,1.19l-17.83,18.17c5.43-2.38,9.68-4.41,12.9-5.94,6.96-10.87,11.54-17.15,14.09-18.84-1.02-2.55-1.87-5.26-2.55-7.98ZM252.12,116.7c5.77-3.57,10.19-6.79,13.75-10.02l-3.06-1.7c-.85-.51-1.53-1.19-2.04-1.7l-8.66,13.41Z"/>
        <path class="cls-5" d="M482.16,15.69c2.55,0,5.43.68,8.66,1.87,7.3,2.72,12.9,7.81,12.05,11.88-.85,3.9-2.89,6.11-4.24,6.62l-.85.17c-.17.85-.17,1.53-.17,2.38s0,1.87-.17,2.72l-.51,11.71c-.34,7.13-.51,14.26-.51,21.56v9.17c0,16.98.34,30.56,1.19,40.74l.17,4.58c.34,7.3.51,13.58.51,18.84,0,9-.68,15.62-2.04,19.69-2.72,7.47-5.43,9.85-10.7,9.34-5.09-.17-10.7-4.75-12.9-8.83l-1.53-2.72c-6.11-7.47-10.53-11.71-13.41-13.24-3.4-1.87-5.43-3.57-5.94-4.75l-.17-.34c0-.17.17-.34.68-.34s1.02,0,1.36.17c.17,0,.34,0,.51.17,7.81,2.21,13.58,3.4,16.98,3.4,2.89,0,4.58-.85,4.75-2.21.17-5.26-.17-42.1-1.36-110.18-6.45,16.47-10.53,26.99-11.71,31.92l-.34.85c1.19,1.7,1.7,3.57,1.7,5.6,0,.85,0,1.19-.17,1.53-.34,1.87-.51,4.92-.51,9.17,0,3.74,0,6.45.17,8.49l.17,6.28c0,3.73-.34,7.3-1.19,10.87-1.19,4.41-3.39,7.47-6.62,7.47-5.94,0-10.02-5.77-10.19-12.22-3.06,2.55-6.79,4.75-10.7,6.11l-1.7,36.84-.51,1.02c-2.04,3.91-4.41,6.45-7.47,7.64-1.53.68-3.23,1.02-4.58,1.02-5.6,0-8.15-2.72-8.15-8.15,0-1.7.17-3.4.68-5.09.34-1.53.51-6.79.51-15.96v-10.36l-7.98,2.72c-1.53,10.02-4.75,18.68-9.34,26.14-2.55,4.07-5.09,6.96-8.15,8.83-6.79,4.41-13.41,7.3-19.52,8.49-.85.17-1.7.34-2.89.34s-1.7-.34-1.7-1.02c0-.51.51-1.36,1.53-2.55,7.98-8.49,19.01-23.94,20.2-29.88l.34-1.7c-3.06,1.53-6.11,2.21-8.83,2.21-6.11,0-10.7-3.9-13.24-7.98-.85-1.53-1.36-3.06-1.36-4.24,0-3.06,2.38-5.26,7.3-6.28l17.32-6.28c-.17-2.72-.68-4.24-1.36-4.92-1.02-1.19-1.53-2.55-1.53-4.07,0-2.38,1.36-3.73,3.06-3.73.34,0,1.02.17,1.87.34,6.28,1.36,10.7,3.73,12.9,6.96l11.04-4.24c-.34-4.75-1.19-7.81-2.72-9l-1.7-1.7c-3.57.85-5.77,1.36-6.45,1.87-2.21,1.02-4.24,1.53-6.62,1.53-6.79,0-13.92-4.41-15.96-8.83-.34-.68-.51-1.19-.51-1.7,0-1.87,1.87-3.23,5.43-3.73l21.39-5.94,10.02-19.86c-4.75-.17-7.81-.51-9.17-.68-1.19.85-2.55,1.87-4.07,2.89-.34,1.36-.85,4.92-1.36,10.53l-.34,3.4c-.17,1.7-1.7,4.07-3.57,5.43-.51.34-1.02.51-1.87.51-1.87,0-3.4-1.36-4.92-4.24-.51-1.36-1.19-3.74-1.87-6.96-2.55,1.53-4.75,3.06-6.62,4.41-2.89,1.87-5.26,2.72-7.13,2.72-3.57,0-5.43-3.57-5.43-8.49s.85-7.98,2.04-10.02c1.02-1.19,1.87-1.7,2.38-1.7.34,0,.85.34,1.7,1.19.51.85.85,1.19,1.19,1.19l10.19-1.87c-.85-6.79-1.53-10.53-1.87-11.37-1.19-1.19-2.21-3.23-2.21-5.09,0-.85,0-1.7.51-3.06,1.53-3.23,3.23-4.75,5.43-4.75,1.36,0,2.55.68,3.74,1.7l4.58,4.41c2.21,1.87,3.4,3.23,4.07,4.24l1.53,1.36c.85.68,1.7,1.53,2.21,2.72.17.17.17.68.17,1.19,0,1.02-.17,2.38-.68,4.07l-1.02,3.06h1.53l14.26-5.6,1.53-.51c4.75-9.68,7.3-15.11,7.47-15.79l-.17-1.87v-1.7c0-3.73-.17-7.64,3.06-6.28,3.9,1.36,8.15,4.24,11.03,8.83.51,1.19.85,2.21.85,3.4,0,1.53-.34,2.89-1.02,4.07l-2.21,4.24c1.87,0,3.06.51,4.24,1.7l.68.51,1.7,1.36,2.55,2.55c.51,1.02,1.02,1.87,1.19,2.55v1.36c0,.34-.17.85-.34,1.36-1.7,3.91-4.07,5.94-6.79,5.94-.51,0-1.36-.17-2.72-.68-1.53-.68-4.24-1.36-8.32-1.87-4.07,7.13-8.15,12.73-11.88,16.81.85-.17,2.04-.17,3.74-.17,4.24,0,7.3.68,8.83,1.87.17.17,1.02.68,2.38,1.87,1.87,1.36,3.06,2.38,3.57,3.23.34.51.51.85.51,1.02,0,1.36-1.87,2.72-5.26,4.24-2.21.85-6.11,2.21-11.88,3.74,4.07,2.21,7.13,5.09,9.68,8.66,2.38-.34,4.41-.51,6.28-.51,3.06,0,5.26.34,6.96,1.19l-.51-14.09c-.17-1.87-.17-4.41-.17-7.64,0-5.6.51-9,1.53-9.85,1.19-1.53,3.06-2.21,5.09-2.21.85,0,1.7,0,2.21.17,1.53.51,2.89,1.53,3.9,2.89v.17c10.53-28.01,16.64-43.12,18.34-44.99.68-2.72,2.89-3.9,6.28-3.9Z"/>
        <path class="cls-5" d="M613.9,40.47l-1.02-1.7c-1.19-1.53-2.38-3.23-2.38-4.58,0-.51.17-1.02.51-1.53.51-.51.85-1.19,1.36-1.87.51-1.19,1.02-1.87,2.38-2.89,1.19-1.19,2.55-1.87,4.75-1.87.68,0,1.53.17,2.38.51,7.13,1.7,10.87,6.45,10.19,11.2l-.68,4.24c-.68,3.4-1.19,6.79-1.53,10.02-.17,2.04-.34,3.23-.17,3.74.17.51.17,2.04.17,5.09,0,5.09-.17,13.58-.51,25.47,7.81-8.32,11.71-13.24,12.05-15.11,0,.17.17-.51.34-1.7,0-1.36.17-2.38.85-3.23.51-1.02,1.53-1.53,3.06-1.53,5.09,0,13.07,4.07,13.58,7.81.51,5.94-1.19,10.02-7.3,13.41-6.96,4.24-11.37,6.62-13.41,7.64,5.43,3.06,8.83,5.09,10.02,6.11l2.55,2.38c1.87,1.53,3.73,4.24,4.41,6.45.51,1.36.68,2.38.68,3.23,0,2.89-2.55,7.13-7.64,7.13-3.06,0-5.77-.51-7.81-1.87-.68-.51-1.53-1.19-2.04-1.7-.17-.17-1.36-1.53-3.9-3.91-.85-.85-2.72-2.72-5.77-5.6.17,14.26,1.02,23.43,2.72,27.33,3.06,7.47,5.6,10.02,10.87,10.02,1.36,0,2.38,0,3.06-.17,8.66-1.19,10.7-2.89,12.05-10.87.17-1.87.51-5.09.68-10.36l.51-12.05c.17-3.4.34-4.92.85-5.09.34-.17.68,0,.85.17.34.68.51,1.53.51,2.89,0,.85,0,1.7.17,2.21v2.21c0,3.4,3.39,15.62,5.09,20.2.85,2.21,1.53,3.73,2.21,4.24,6.11,5.43,9,9.51,9,12.22,0,2.04-1.7,5.94-4.92,9.68-3.57,4.07-10.19,7.81-16.98,8.32-3.23.17-5.77.34-7.3.34-29.2,0-32.26-18-34.97-32.94-1.36-7.3-2.04-14.26-2.04-21.05,0-5.26.34-13.07,1.02-23.43-1.53,1.53-3.06,2.89-4.24,4.41-.85,19.01-2.38,31.41-4.41,36.84-3.39,8.66-9.51,14.6-18,17.49-3.39,1.02-6.79,1.87-9.68,2.21-.68,13.58-3.57,20.37-8.32,20.37-4.24,0-8.49-3.23-13.24-10.02-1.87-2.55-3.06-3.9-3.9-4.41-2.72-1.87-8.15-7.47-8.83-9.85-.34.17-1.02.34-2.04.34-4.92,0-7.3-2.72-10.02-6.62-1.53-1.87-2.38-4.07-3.23-6.28-.17-.51-.34-1.19-.34-2.04,0-1.36.68-2.38,1.87-3.06,7.47-4.24,17.49-10.53,29.88-18.84.17-2.89.17-6.79.17-12.22l-5.26,2.38-2.89-.85c-3.06-.68-9-4.41-11.03-7.81-1.53-2.72-2.55-4.75-3.06-6.96-.17-.17-.17-.68-.17-1.19,0-2.21,2.89-4.07,6.28-4.75,3.9-.85,9.51-3.23,17.15-7.47l.34-41.08c-.68-1.36-1.02-2.55-1.02-4.07,0-.68,0-5.43,3.23-6.11.51,0,1.02-.17,1.53-.17,4.07,0,9.68,2.04,13.41,5.43,1.87,1.87,2.89,3.74,2.89,5.94,0,2.55-.34,5.09-.85,7.98-.68,2.55-1.02,3.9-1.02,4.75l-.34,18.84c4.92.17,6.96,5.77,6.96,11.54v2.89c-.51,2.21-2.04,4.58-4.58,7.13h2.72c4.07.17,7.13.68,9.17,1.7-.17-12.9-.17-20.2-.34-21.73,0-1.19-.51-2.04-1.7-4.58-.68-1.19-1.02-2.38-1.02-3.4s.34-1.7,1.02-2.21c1.87-1.53,4.07-2.38,6.45-2.38,4.07,0,8.32,3.06,10.7,6.28,1.53,2.21,2.21,5.26,2.21,9.34,0,5.09-.17,11.37-.34,18.67,1.53-1.02,3.06-1.87,4.07-3.06,1.19-27.5,1.7-41.76,1.36-42.61ZM557.54,130.28c-4.41,4.07-7.64,7.3-9.68,9.17-2.21,2.04-4.07,4.24-5.26,6.11l1.7.68c5.6,2.38,9.51,3.57,11.54,3.57,1.19,0,1.7-.34,1.7-1.19v-1.36c-.17-.85-.17-2.04-.17-3.9l.17-13.07ZM591.33,98.87c-7.13-.17-11.54-2.89-14.94-8.83v1.7c-.17,1.36-.34,3.57-.34,6.28,2.72-1.7,4.41-1.87,4.41-.51s-1.7,4.92-4.58,10.87c-.17,1.7-.17,4.58-.17,8.32l15.45-15.28.17-2.55ZM585.72,124.34c-1.36,2.89-4.07,4.41-6.96,4.41-1.19,0-2.04-.34-2.89-.85l.34,18.17c6.62-6.96,10.87-16.13,13.07-27.33-1.87,2.55-3.06,4.41-3.57,5.6Z"/>
        <path class="cls-5" d="M806.77,34.02c1.87-4.07,3.9-5.94,6.45-5.94,1.19,0,2.38.17,3.91,1.02,1.19.85,2.21,1.36,2.72,1.53,5.26,2.72,10.02,6.96,8.83,10.19-1.87,4.75-8.49,8.83-13.24,8.83-2.72,0-5.09-.34-7.81-.34-5.09,0-8.32.17-9.51.68-1.19.51-2.72,1.02-4.58,1.53.17,2.89.51,7.47,1.19,13.92l3.74-3.23c.34-.34.68-.51,1.02-.68.85-.85,5.09-2.38,7.13-2.38,4.41,0,7.81,3.9,9.68,6.11.85,1.19,1.36,2.38,1.36,3.39,0,1.53-.85,3.06-2.72,4.75-1.87,1.87-5.09,4.41-10.19,8.32l-6.79,5.26c1.87,9.34,3.23,16.13,4.24,20.37,3.9-6.79,6.11-11.88,6.28-15.11,0-3.39,1.19-5.09,3.56-5.09,2.55,0,8.32,3.06,11.21,6.28,1.53,1.87,1.87,3.57,1.87,5.43s-.51,3.74-1.53,5.6c-2.55,5.09-7.13,12.73-14.26,22.75,3.74,6.79,7.3,12.05,10.02,16.13,1.87,2.89,3.57,4.92,5.26,6.28,1.36,1.36,2.38,1.7,2.89.85,1.02-1.19,3.74-7.64,8.15-19.69,1.7-3.9,2.72-5.94,3.06-5.94.17,1.19.17,3.4.17,7.3,0,11.88.51,19.69,1.7,23.43,1.19,4.07,1.7,7.47,1.7,10.53,0,5.94-3.23,9.17-9.34,10.36-.34.17-.85.17-1.36.17-3.57,0-8.15-2.55-12.9-7.13-5.77-6.28-12.56-15.45-20.71-28.18-.68.68-1.36,1.19-1.87,1.36-4.58,1.53-8.15,2.72-11.03,3.9-9.85,3.4-21.39,6.79-26.14,6.79-1.7,0-2.38-.34-2.38-.85,0-.68,1.02-1.53,2.55-2.55,1.87-1.19,4.24-3.23,7.81-6.11l4.41-3.9,9.68-9.34c.68-.51,2.21-2.21,4.75-4.58l3.74-3.9c-1.7-7.13-3.57-15.28-5.6-24.28-3.9,2.21-7.13,3.39-9.34,3.39-1.19,0-2.21-.34-2.72-.85-2.21-1.53-3.74-2.89-4.41-4.24-3.9,10.19-7.64,15.45-11.88,15.45-1.02,0-1.53-.17-2.04-.34-.51-.17-1.02-.51-1.7-.68-1.87-.68-3.06-1.19-3.39-1.36l-4.24,1.53v6.62c3.57-1.53,5.77-2.38,6.45-2.55l2.89-1.02c2.89-1.19,5.6-2.04,7.81-2.38h1.19c1.19,0,2.21.17,3.06.51,4.07,1.7,6.96,4.24,6.96,6.96,0,1.19-.34,1.87-.85,2.55-2.55,4.58-5.77,6.28-9.68,5.77-2.55-.17-8.49.68-17.66,3.23l.17,29.03c.17.34.51,1.02,1.19,1.87.51,1.02.85,1.87.85,3.06,0,3.9-5.26,9.17-8.66,9.17-4.75,0-10.36-7.81-10.87-14.43,0-3.57.17-10.7.68-21.73-4.75,2.55-9.68,4.92-14.94,7.81-1.36.85-2.89,1.36-4.75,1.36-5.09,0-7.81-4.75-7.81-8.66,0-1.87,1.19-3.39,3.74-3.9,1.87-.51,10.02-3.74,24.11-9.85l.34-7.3c-2.21.85-3.74,1.36-4.58,1.53-.51.51-1.19.85-1.7.85-2.21,0-5.77-3.06-8.49-6.28-3.23-4.41-7.3-15.11-7.3-22.07,0-2.55.68-4.07,1.87-4.41.17-.17.51-.17.85-.17.51,0,1.36.34,2.55.85l3.57,2.38,1.36,1.02c.51.51,1.7,2.21,3.06,5.43l10.02-7.64.51-4.07c-.85.51-2.04.51-3.57.51-2.55,0-4.75-.85-4.75-2.38,0-.85.68-1.87,2.21-3.06,2.21-1.7,9.34-5.94,21.39-12.39l-.51-.68c-1.19-2.04-4.07-16.64-4.75-23.94-.34,1.19-1.7,3.57-3.74,6.96l-2.38,4.24c2.55.17,5.6,2.89,5.6,6.11,0,1.53-.85,2.89-2.38,3.91l-2.04,1.53c-2.04,1.7-3.74,3.23-5.43,4.41-2.21,1.36-3.9,2.04-4.92,2.21-.68.17-1.19.17-1.36.34-.34.17-.85.17-1.36.17-.68,0-1.19-.17-1.7-.51-.51,2.04-2.55,3.4-5.26,3.4-.85,0-2.04-.17-3.4-.68-3.06-1.36-5.6-10.87-7.13-18.17l-.68-3.91c-.34-1.19-.51-2.21-.51-2.89,0-1.02.68-1.53,2.04-1.53l3.23.34c2.89.17,6.45,3.73,10.53,10.7.68-.17,1.02-.51,1.19-.68l4.58-12.22c-.85.17-1.87.17-3.06.17-2.89,0-4.24-.85-4.24-2.38,0-1.36.85-2.72,2.38-4.41l11.54-11.2.34-.17c0-.34,1.87-1.53,3.39-1.53.85,0,1.7.34,2.55,1.02,2.72,2.04,4.24,3.57,4.58,4.07,2.55,0,4.08,1.02,4.41,2.89.51,1.7,1.02,7.47,1.7,16.81l.85-.51,8.15-12.05c-.51.17-1.19.34-2.04.34-1.19,0-2.21-.51-3.06-1.53-.85-1.19-1.53-1.87-1.7-2.89l-.17-.51c0-.85.68-1.7,1.87-2.89,5.09-4.07,12.73-9.34,15.62-9.51,2.38,0,4.75.51,7.13,1.7,1.19.85,2.04,1.53,2.55,2.04.17-7.81,1.19-11.71,3.23-12.05.51-.17,1.36-.17,2.21-.17,4.41,0,7.81,1.02,10.7,3.57,1.53,1.36,2.21,3.06,2.21,4.75,0,.85,0,1.36-.17,1.7-1.53,9.17-2.38,16.98-2.38,23.43,8.15-6.96,12.56-11.37,13.24-12.73ZM728.67,106l.17-4.07c-2.89,1.36-4.75,1.87-6.28,1.7l2.04,5.26,4.08-2.89ZM753.12,72.73c-3.56,1.19-6.96,2.55-10.7,4.07,1.02.85,1.7,1.87,2.04,3.4v.17c2.72.17,4.92.85,6.45,1.7l2.21-9.34ZM749.04,89.54c-1.19,1.19-2.55,2.04-4.24,2.72l-.34,6.28c1.02-.17,1.87-.17,2.38,0l2.21-9ZM780.45,77.99c-1.02-6.45-1.53-11.88-1.53-16.3l-.51-15.79-.68-14.94c-.34.51-1.02,1.36-2.04,2.21-1.87,1.36-7.47,8.49-8.66,11.88,1.02.17,1.7.51,2.04,1.02,1.02,1.53,1.53,3.06,1.53,4.75,0,2.89-1.02,3.57-3.56,4.75l-2.89,1.02-8.15,3.23c-2.55,1.02-4.08,1.53-4.58,1.36l-2.55-.34v2.04c0,1.36,0,2.38-.17,2.55q-.17,0-.17.17l6.96-2.04.51-.34c.51-.17,2.38-1.36,3.56-1.53.34-.17.85-.17,1.53-.17,1.02,0,2.21.34,3.05.85,7.47,4.07,10.19,7.13,10.19,10.87,0,1.36-.34,3.06-1.02,5.09-.85,2.21-1.36,3.73-1.53,4.58l-1.53,3.9,10.19-8.83Z"/>
        <path class="cls-5" d="M907.27,44.38l18.17-5.77c2.04-5.77,3.06-10.02,3.06-12.22,0-1.02-.17-1.7-.68-2.04-2.89-2.04-5.43-5.6-5.43-8.32,0-3.23,4.75-3.06,7.64-3.06,7.98,0,21.22,11.04,22.58,17.83l7.3-2.04c5.26-1.19,10.53-2.38,15.79-3.23,1.87-.34,3.57-.51,4.75-.51,2.89,0,4.92.68,6.28,2.04,1.53,1.53,3.23,3.06,5.09,4.41,1.7,1.19,2.72,2.55,3.56,3.74.51.68.68,1.7.68,2.72,0,.68-.17,1.19-.34,1.53-1.19,3.74-5.26,4.92-13.75,5.6-7.47.51-12.05,1.19-14.09,1.7,1.53,2.04,2.21,3.9,2.21,5.77s-.68,3.23-2.21,3.9c-1.19.34-4.41,1.19-9.68,2.38l-.51,2.21c.68-.17,1.36-.17,2.55-.17,5.43,0,9.17,3.06,9.17,6.28,0,1.19-.51,1.87-1.7,2.38-1.19.51-3.57,1.02-7.13,1.87-1.53.17-2.55.51-3.23.68,0,2.04-.17,3.9-.34,5.6l25.13-6.28c.34-.17,1.02-.17,2.04-.17,3.23,0,7.13,1.02,9.34,3.23,2.04,2.04,3.23,3.9,3.23,6.11,0,1.36-.85,4.75-3.39,4.75-.51,0-1.02,0-1.36-.17-1.02-.34-2.72-.34-4.92-.34-4.24,0-10.87.34-19.69,1.36,19.18,15.11,24.45,15.96,42.78,23.09,3.57,1.36,5.94,3.06,7.13,4.75.51.85.68,1.7.68,2.55,0,2.04-2.04,3.06-3.9,2.38-1.19-.51-4.58.51-10.19,2.55-2.04.85-8.15,2.04-13.41,2.21h-1.36c-2.04,0-3.39-.34-4.07-1.02-1.53-1.87-8.15-8.83-19.52-20.88-.17,2.04-.34,3.9-.34,5.6,0,5.77.68,12.73,1.36,15.45.68,3.23,1.53,15.11,1.53,21.56,0,4.07,0,5.43-3.91,6.62,6.28,4.24,10.02,7.47,11.21,10.02,1.87,2.89,2.72,5.6,2.72,8.15,0,4.41-3.06,7.47-9,7.47-4.75,0-8.49-3.06-12.22-9.51-.85-1.87-2.72-4.41-5.43-7.47-3.39-3.73-5.94-6.62-7.3-9.17-1.19-1.87-1.87-3.74-1.87-5.6,0-2.89,1.53-4.92,4.24-4.07-.34-.85-.51-1.7-.51-2.55l-.34-13.07c-10.18,3.74-16.64,5.77-19.52,6.28,0,1.53,0,2.72-.17,3.4,4.58-2.38,7.98-3.74,10.53-3.74,2.04,0,4.07,2.04,4.07,4.58,0,1.53-.85,2.72-2.38,3.57-4.24,2.72-7.3,5.77-9,9.17-2.04,3.4-16.13,15.62-21.9,19.52-5.09,3.4-8.32,5.26-9.34,5.26-.34,0-.51-.17-.51-.34s.17-.68.68-1.36l.51-.51c1.53-1.87,5.26-6.45,11.37-13.41.85-1.19,1.7-2.04,2.55-2.89l3.56-4.07-.68.34-1.87.51c-1.19.51-2.04.68-2.55.85-.68.34-2.38.85-5.43,1.36-.51.17-1.19.17-2.21.17-.85,0-1.53-.17-1.7-.34-1.36-1.19-2.04-2.38-2.04-3.57,0-1.53.85-2.38,2.72-3.23.68-.17,3.06-1.19,6.79-3.06l3.57-1.7c0-1.19,0-2.38.17-3.4.17-1.02.17-2.04.17-3.23.51-7.13,1.19-16.47,2.21-28.52-4.92,5.77-9.85,11.2-15.11,16.3-4.58,4.07-5.94,5.09-9.34,6.45-1.7.85-3.74,1.53-6.28,2.21l-5.6,1.53c-3.9,1.02-8.66,2.04-10.19,2.21-.17.17-.51.17-.85.17s-.51-.17-.51-.34.68-1.02,1.87-2.04c4.24-3.74,10.19-7.47,18-11.71,6.11-3.06,13.75-10.7,22.41-22.75l-11.2,4.07c-.51.17-1.53.51-3.23,1.36-3.23,1.53-4.58,2.04-6.96,2.04-2.72,0-7.3-1.87-7.3-4.75,0-1.87,1.53-3.4,4.75-4.92,1.87-1.02,11.37-3.9,29.03-8.32,0,.17.17-1.36.34-4.07-2.21.68-4.08,1.19-5.77,1.19-3.06,0-4.75-1.53-4.75-3.57,0-2.21,1.02-3.57,3.57-4.07l7.81-2.55.51-4.41-1.36.17c-.85,0-1.53-.17-2.04-.51-2.72-1.36-3.9-3.23-3.9-5.26,0-1.7.85-2.89,2.89-4.07l2.72-1.19c1.02-.34,1.87-.68,2.89-1.19.17-3.06.34-5.94.85-8.15-3.74,2.89-7.13,4.24-9.85,4.24-1.87,0-3.57-.51-5.09-1.7-2.38,10.19-4.41,16.98-6.28,20.03-.17.51-.68,1.53-1.36,2.21l-1.19,1.36c-.34.51-.85.85-1.36.85-.85.17-1.19.34-1.36.51h-.85c-1.36,0-2.21,0-2.38-.17l-1.87-.34c-1.53,0-2.21-.17-2.21-.17-2.72-.17-4.07-2.89-4.07-5.6,0-.51,0-1.02.17-1.36l.34-1.87,11.2-22.41c1.36-2.89,2.21-4.41,3.57-5.77.68-.68,1.36-1.02,2.04-1.02,1.7,0,3.56,1.87,5.6,6.28l3.73-1.36ZM944.79,99.21c-3.56.68-6.45,1.7-8.49,3.06-.34.17-1.02.51-2.04,1.36-2.21,1.53-3.57,2.38-4.24,2.55-.85.34-1.53.51-2.04.51s-1.36-.17-2.21-.51c-1.87-1.19-2.72-2.89-2.72-4.75,0-2.55,1.36-3.23,5.43-4.75,1.19-.51,2.04-.85,2.38-1.19l2.72-1.02c.51-.17,1.36-.34,2.21-.85l1.7-.51.34-.17c1.19-1.19,2.55-2.04,4.41-2.89l-4.41,1.02c-5.09,1.02-9.68,2.38-13.75,3.57-.68,1.87-2.72,4.58-5.77,8.49,2.89,1.53,6.62,5.94,7.81,9.34,7.81-3.91,12.22-5.94,13.24-5.77,3.23,0,5.09.17,5.6.51l-.17-7.98ZM937.15,42.34c-7.3,1.7-12.39,3.57-14.94,5.43,5.26,1.53,8.66,3.4,9.68,5.6,1.36-.51,3.39-1.36,5.94-2.21,0-3.74-.17-6.79-.68-8.83ZM945.3,114.66c-3.39,0-6.62.17-9.51.68-1.87.34-2.72.68-2.89,1.02-.85,1.02-2.89,2.04-6.45,3.23v4.41c9.85-4.41,16.13-6.45,18.85-5.94v-3.4ZM937.32,76.97c-3.05.68-5.43,1.19-6.79,1.36,0,2.89,0,4.92-.17,6.28,4.07-1.19,7.3-1.87,9-2.38-1.02-1.87-1.53-3.57-2.04-5.26ZM931.38,64.07l-.51,5.94,6.96-2.38.17-4.75-6.62,1.19ZM954.47,45.4l1.7-.34,2.89-.85c1.53-.51,2.89-.85,3.74-.85.85.17,1.53.51,2.04.68,2.89-3.06,5.43-6.11,7.47-8.66l1.36-1.7c-12.56,2.72-21.39,4.92-26.14,6.11,2.72,1.53,4.92,3.23,6.96,5.6ZM952.6,88.18c-.85.17-2.38.34-4.41.85,1.36.17,2.38.68,3.06,1.36,1.36,1.19,4.08,2.55,7.64,4.41-4.07-4.07-6.11-6.45-6.28-6.62Z"/>
      </g>
      <g>
        <path class="cls-5" d="M67.67,252.88v7.15c0,9.66-6.89,21.94-19.1,21.94h-16.35c-3.73,0-6.35-1.03-8.39-2.43-2.75,1.92-6.25,3.04-10.32,3.04v-63.25c0-9.35,6.33-16.97,16.32-17.36.2-.01.4-.02.61-.02h12.63c10.5,0,21.84,9.36,21.84,20.91s-1.68,11.28-3.84,15.06c4.59,3.76,6.6,9.03,6.6,14.95ZM51.3,259.58v-4.37c0-3.68-3.18-6.88-6.68-6.68h-13.98v17.13c0,.2,0,.4-.01.6h14c3.5-.2,6.68-2.99,6.68-6.68h0ZM30.64,217.41v16.6h12.43c3.03,0,5.49-2.46,5.49-5.49v-5.6c0-3.03-2.91-5.5-5.94-5.5h-11.98Z"/>
        <path class="cls-5" d="M130.39,281.49c-9.48,2.31-18.88-2.86-21-11.56l-.92-3.77-.39-1.88h-16.53l-.39,1.88-.92,3.77c-2.12,8.7-11.52,13.87-21,11.56l16.98-68.26c1.04-4.25,3.39-7.22,7.07-9.33,1.97-1.12,4.16-1.76,6.53-1.76s4.56.63,6.53,1.76c3.68,2.11,6.03,5.07,7.07,9.33l16.98,68.26ZM105.13,250.1l-5.31-25.53-5.31,25.53h10.63Z"/>
        <path class="cls-5" d="M192.29,202.8v63.35c0,6.67-4.09,12.47-10.1,15.39-2.53,1.37-5.44,2.24-8.52,2.53-2.35.22-3.52.36-7.55.41-1.12.01-2.1.02-2.84.02-3.25,0-6.33-.18-9.21-.43-4.91-.43-9.38-1.96-12.59-5.11-.4-.34-.76-.68-1.09-1.04-3.1-3.1-4.99-7.23-4.99-11.77v-63.35c3.31,0,6.42.78,9.12,2.14,5.87,2.96,9.85,8.69,9.85,15.27v43.08c0,1.25.48,2.49,1.41,3.32.82.72,1.89,1.14,3.2,1.14h0s7.44.02,7.44.02h0s2.29.02,2.29.02l.02-.04s.05,0,.07,0c2.51-.03,4.5-2.15,4.5-4.66v-42.88c0-6.71,4.13-12.52,10.18-15.43,2.63-1.26,5.62-1.98,8.79-1.98Z"/>
        <path class="cls-5" d="M261.05,202.21v63.54c0,9.65-8.52,17.47-19.03,17.47v-32.15h-22.03v14.68c0,9.65-8.52,17.47-19.03,17.47v-46.83c-.06-.67-.1-1.35-.1-2.03h.1v-14.68c0-9.65,8.52-17.47,19.03-17.47v32.15h22.03v-14.68c0-9.65,8.52-17.47,19.03-17.47Z"/>
        <path class="cls-5" d="M286.13,202v63.3c0,9.41-8.31,17.04-18.56,17.04v-63.31c0-9.41,8.31-17.04,18.56-17.04Z"/>
        <path class="cls-5" d="M360.03,202.03v62.97c0,9.57-8.17,17.42-17.74,17.42v-6.29l-32.31-43.25v32.2c0,9.57-7.76,17.33-17.33,17.33v-63.05c0-9.57,7.76-17.34,17.33-17.34l32.31,46.59v-29.25c0-9.57,8.17-17.34,17.74-17.34Z"/>
        <path class="cls-5" d="M387.28,202v63.3c0,9.41-8.31,17.04-18.56,17.04v-63.31c0-9.41,8.31-17.04,18.56-17.04Z"/>
        <path class="cls-5" d="M451.25,281.49c-9.48,2.31-18.88-2.86-21-11.56l-.92-3.77-.39-1.88h-16.53l-.39,1.88-.92,3.77c-2.12,8.7-11.52,13.87-21,11.56l16.98-68.26c1.04-4.25,3.39-7.22,7.07-9.33,1.97-1.12,4.16-1.76,6.53-1.76s4.56.63,6.53,1.76c3.68,2.11,6.03,5.07,7.07,9.33l16.98,68.26ZM425.99,250.1l-5.31-25.53-5.31,25.53h10.63Z"/>
        <path class="cls-5" d="M470.51,265.07v-45.76c0-.08,0-.15,0-.23h0c0-10.09,6.14-16.67,15.18-17.15v-.03h34.44v4.56c0,8.34-5.79,14.7-14.88,14.7v-2.09h-11.71c-2.4.26-4.59,2.18-4.98,4.63-.04.25-.07.51-.07.77v5.54c0,.28.03.56.07.84v30.03c.4,2.6,2.09,4.42,4.8,4.42h27.19c0,10.47-7.79,17.18-17.4,17.18h-15.32l-.04-.07c-3.9-.32-7.45-1.72-10.31-3.87-2.36-1.77-4.32-4.05-5.53-6.66-.92-2.09-1.43-4.39-1.43-6.8Z"/>
        <path class="cls-5" d="M586.67,202.21v63.54c0,9.65-8.52,17.47-19.03,17.47v-32.15h-22.03v14.68c0,9.65-8.52,17.47-19.03,17.47v-46.83c-.06-.67-.1-1.35-.1-2.03h.1v-14.68c0-9.65,8.52-17.47,19.03-17.47v32.15h22.03v-14.68c0-9.65,8.52-17.47,19.03-17.47Z"/>
        <path class="cls-5" d="M651.93,281.49c-9.48,2.31-18.88-2.86-21-11.56l-.92-3.77-.39-1.88h-16.53l-.39,1.88-.92,3.77c-2.12,8.7-11.52,13.87-21,11.56l16.98-68.26c1.04-4.25,3.39-7.22,7.07-9.33,1.97-1.12,4.16-1.76,6.53-1.76s4.56.63,6.53,1.76c3.68,2.11,6.03,5.07,7.07,9.33l16.98,68.26ZM626.67,250.1l-5.31-25.53-5.31,25.53h10.63Z"/>
        <path class="cls-5" d="M674.82,263.31h32.39c0,10.34-7.7,18.73-17.19,18.73h-33.93c0-.06,0-.12,0-.18h0v-62.53c0-9.49,8.38-17.19,18.73-17.19v61.17Z"/>
        <path class="cls-5" d="M731.85,263.31h32.39c0,10.34-7.7,18.73-17.19,18.73h-33.93c0-.06,0-.12,0-.18h0v-62.53c0-9.49,8.38-17.19,18.73-17.19v61.17Z"/>
        <path class="cls-5" d="M786.52,263.15h30.28c0,10.43-8.01,18.89-18.44,18.89h-12.34c-9.96,0-18.03-8.07-18.03-18.03v-43.66c0-10.18,8.25-18.44,18.44-18.44h34.47c0,10.43-6.84,18.89-17.27,18.89h-17.1v12.13h22.53l-4.14,17.52h-18.4v12.71Z"/>
        <path class="cls-5" d="M890.84,202.03v62.97c0,9.57-8.17,17.42-17.75,17.42v-6.29l-32.31-43.25v32.2c0,9.57-7.76,17.33-17.34,17.33v-63.05c0-9.57,7.76-17.34,17.34-17.34l32.31,46.59v-29.25c0-9.57,8.17-17.34,17.75-17.34Z"/>
        <path class="cls-5" d="M899.52,264.77v-45.41c0-.08,0-.15,0-.23h0c0-10.01,6.09-16.54,15.06-17.01v-.03h34.17v4.53c0,8.27-5.75,14.59-14.76,14.59v-2.07h-11.62c-2.38.26-4.55,2.17-4.94,4.59-.04.25-.07.5-.07.76v5.49c0,.28.03.56.07.83v29.8c.4,2.58,2.07,4.39,4.76,4.39h18.14v-12.03c0-.58.04-1.12.09-1.63-7.13-1.31-11.66-6.45-11.66-14.93h16.66c13,0,11.02,12.79,11.02,17.96l-.06,12.2c0,8.13-6.11,14.16-13.21,15.47l-26.52-.06c-3.86-.31-7.39-1.71-10.23-3.84-2.34-1.76-4.29-4.02-5.49-6.61-.91-2.07-1.42-4.35-1.42-6.75Z"/>
        <path class="cls-5" d="M980.23,263.15h30.28c0,10.43-8.01,18.89-18.44,18.89h-12.34c-9.96,0-18.03-8.07-18.03-18.03v-43.66c0-10.18,8.25-18.44,18.44-18.44h34.47c0,10.43-6.84,18.89-17.27,18.89h-17.1v12.13h22.53l-4.14,17.52h-18.4v12.71Z"/>
      </g>
      <g class="cls-4">
        <path class="cls-3" d="M89.48,60.67c11.54-14.43,25.47-32.94,26.82-36.16l1.02-2.21c-7.47,1.53-11.88,3.74-15.79,10.19-2.21,3.23-4.24,8.15-5.94,14.26-1.19,3.57-3.06,5.43-5.94,5.43-3.23,0-7.81-2.21-9-5.94-.68-1.87-1.02-3.9-1.02-6.28,0-2.04.51-6.45,2.04-11.2.51-2.21,1.19-3.74,1.7-4.41.68-.85,1.36-1.53,2.72-1.53.85,0,2.38.34,4.24,1.02,1.7.68,3.39,1.02,5.26,1.02,1.19,0,4.07-.68,8.49-2.04s9.68-3.23,15.96-5.94c.85-1.19,1.7-1.87,2.55-2.04l1.87-.85c.51,0,2.04-.51,3.06-.68.51,0,1.02,0,1.53.17.85.17,1.7.51,2.38,1.19l1.7,1.36c2.55,2.04,5.43,4.58,6.62,7.64.17.51.34,1.19.34,2.04,0,1.19-.17,2.04-.68,2.72-.85,2.21-2.38,4.07-4.41,5.6-1.87,1.36-3.06,2.55-3.57,3.57,0,.51-2.04,3.23-5.6,7.98,1.7-.51,3.23-.85,4.41-.85,5.09,0,9.68,3.23,11.54,6.96.34.85.51,1.7.51,2.55,0,1.19-.34,2.21-1.19,2.89-2.72,3.57-6.62,4.92-10.87,4.92-1.87,0-6.79,1.36-14.6,3.73l.51,8.15c4.07-1.53,7.81-2.21,10.53-2.21,5.26,0,8.32,3.23,8.32,7.98,0,2.89-2.04,6.45-3.57,7.3-3.06,2.21-10.36,4.75-14.26,4.58l.34,9.34,5.77-1.53c12.73-3.4,19.18-4.92,24.62-4.92,6.45,0,11.03,3.06,13.75,7.47,1.53,2.38,2.21,4.41,2.21,6.45,0,1.19-.34,2.21-.85,3.06-2.21,3.57-5.09,5.43-8.66,5.43-1.19,0-2.38-.34-3.9-.85-3.4-1.87-11.54-2.89-20.2-2.89-4.58,0-8.66.17-12.39.68l.17,7.13c0,16.13-1.19,23.94-5.94,39.39-2.21,7.98-4.24,12.39-6.11,13.41-.85.51-1.53.68-2.21.68-1.02,0-2.38-.68-3.57-1.87-1.87-1.87-3.06-5.26-3.57-10.7-.51-6.28-1.02-20.37-1.53-42.1-12.56,4.07-20.54,6.96-24.11,8.49l-2.04.85c-1.7,1.02-3.23,1.7-4.41,2.04-.85.17-1.53.34-1.87.34-1.87,0-4.75-1.7-7.47-4.92-.85,10.36-1.19,16.64-1.02,18.5.51,5.77-1.53,10.87-5.43,10.87-1.19,0-2.21-.34-3.23-1.02-6.62-4.58-12.05-12.39-11.37-18.84l-1.87-7.13c-6.62-22.24-9.85-34.8-10.19-37.86-.51-1.87-.85-4.24-.85-6.79,0-4.58.85-7.13,2.55-7.64l2.04-.68c10.36-16.64,15.62-26.99,15.62-31.24,0-1.87-.34-3.91-.85-6.45-.51-1.36-1.19-3.9-1.19-4.75,0-.68.17-1.53.51-2.38,1.7-2.04,4.24-3.06,7.47-3.06,1.53,0,3.06.17,4.41.68l5.77,2.72c4.58,2.21,10.19,6.11,12.9,10.87.51,1.36.85,2.55.85,3.57,0,2.55-1.53,6.28-3.73,8.32-2.38,2.04-5.77,2.55-7.64,2.55-1.19,0-2.04-.17-2.55-.34-2.55-.51-3.91-1.02-4.41-1.36l-.68-.34c-.17.17-.34.17-.85,0-2.21-.51-7.13,2.04-10.36,5.6-1.53,1.87-3.06,3.74-4.41,5.94-3.23,5.43-5.43,9-6.62,10.7,10.02,3.39,14.77,10.53,14.77,17.15,0,3.23-1.02,5.6-2.89,6.45-.17.17-.68.34-1.53.68-.17.17-.68.34-1.19.51-1.36.68-2.04,1.19-2.89,2.38-1.36,1.53-2.21,4.41-2.21,8.49,0,4.41,1.36,9.34,4.24,14.77,5.77-9.17,17.15-30.22,20.71-37.52,2.04-4.58,4.24-7.81,6.62-10.36.34-.51.68-.68.85-.68s.17.51-.17,1.36c-.17.17-1.02,2.38-2.55,6.11l-1.87,4.75c-2.21,5.77-3.9,10.7-4.92,14.6-.68,2.38-1.02,4.41-1.02,5.94v1.36c0,1.53,0,2.89-.17,4.07,1.36-.17,2.21-.34,2.38-.17s10.02-2.55,30.22-7.98c-.34.17,1.7-.51,6.45-1.87,0-3.4,0-6.11-.17-7.98-1.87.85-3.57,1.36-5.09,1.36-5.26,0-10.36-4.07-11.54-8.83-.17-.34-.17-.68-.17-1.19,0-1.53.85-2.38,2.55-2.72,2.38-.68,7.13-2.55,14.09-5.26,0-3.57,0-5.94.17-7.13-4.41,2.21-7.81,3.06-10.7,3.06-1.19,0-2.21-.34-3.4-.68-4.07-2.89-5.94-4.75-7.3-7.13-.34-.51-.51-1.19-.51-1.7,0-.85.34-1.53,1.02-2.21,1.02-1.02,2.89-2.04,5.94-2.89,3.06-.68,6.45-1.7,9.68-3.06Z"/>
        <path class="cls-3" d="M280.3,35.04c.17,1.7.34,4.58.85,7.98,10.53-5.94,17.32-9.34,23.94-9.34,3.74.17,7.98,3.74,7.98,8.49,0,3.57-2.55,6.79-5.43,7.3-4.58.85-12.56,3.57-23.94,8.32,3.23,13.41,8.32,23.09,15.45,29.2,5.43,4.75,9.85,8.15,13.75,10.36,3.06,1.7,5.09,2.21,5.94,1.7.68-.51,1.02-1.36,1.19-2.55.51-2.72,1.87-6.62,4.07-11.71.85-1.7,1.53-2.55,1.87-2.55s.51.68.51,2.04c-.34,12.05.68,19.35,3.06,22.07,1.87,2.04,2.72,5.43,2.72,8.49,0,4.75-1.36,5.26-3.91,5.94-1.36.51-2.89.68-4.58.68-3.23,0-6.28-.68-9-2.04-1.7-1.02-3.23-2.04-4.41-3.06-3.4-2.21-10.53-7.47-15.79-12.56-5.94-5.77-12.56-13.92-16.98-21.73l-13.92,17.15,2.55-1.02.34-.17h.34c6.11,0,18,2.04,21.05,4.92,2.72,2.72,4.58,7.64,4.58,11.54,0,3.23-1.02,4.75-2.89,4.75l-2.04-.68c-3.06-1.36-7.81-3.91-14.43-7.47-1.53,5.26-3.74,9.51-6.28,12.9l.17,5.43c2.89-.34,5.6-.51,7.64-.51,10.87,0,18.34,3.57,26.99,11.71,3.57,3.06,5.26,5.94,5.26,8.32,0,3.39-3.23,5.6-6.96,6.79-.85.34-1.7.51-2.55.51-1.87,0-3.23-.51-4.41-1.53-2.89-2.89-16.98-12.22-25.64-17.32l1.02,25.13c-1.19,5.09-3.23,8.32-6.28,10.19-2.21,1.53-3.74,2.38-4.92,2.38-2.21,0-3.74-2.89-6.45-8.32-2.89-5.26-5.09-8.66-7.47-10.19l-7.98-5.26-2.89-1.87c-1.02,5.77-1.7,8.83-1.87,9.34-1.02,3.06-4.58,5.26-7.13,5.26-1.53,0-2.72-.51-3.06-.85l-1.02-1.19c-2.21-2.72-5.26-7.47-6.11-11.54-.17-1.19-.34-1.87-.34-2.21,0-3.23,1.19-5.43,6.62-7.81,1.87-.51,3.9-1.19,6.45-1.7,2.55-.85,7.13-4.58,13.58-10.7-.85-1.53-1.19-3.23-1.19-4.75s.51-2.89,1.36-3.74,1.87-2.21,2.89-3.74c-1.19.17-2.04.34-2.55.34-4.75,0-9-3.23-12.73-9.51-1.19-1.7-1.7-3.06-1.7-4.24,0-.85.34-1.53,1.02-2.04,2.55-1.53,5.26-3.57,8.49-6.11,1.87-1.53,6.28-7.47,13.07-17.66-14.43,8.15-22.58,13.07-24.62,15.11-8.83,9-15.62,13.58-20.54,13.58-.85,0-1.53-.17-2.38-.51-4.75-2.04-8.32-5.77-8.32-8.32,0-2.21,1.87-3.23,4.58-4.58,1.19-.34,2.55-1.02,4.24-1.87l12.22-7.13c-.51-14.09-1.19-22.07-2.38-23.94-.51-.68-1.53-2.38-1.53-2.55-.51-.51-1.36-2.04-1.53-2.55-.51-.85-.85-1.87-.85-2.72,0-1.87,1.19-1.7,2.89-1.7,3.4,0,8.32,1.7,11.71,3.57,1.53,1.02,2.21,2.21,2.21,3.06,0,1.36,0,7.98.51,20.37l7.13-4.24c-1.7-3.74-2.55-6.62-2.38-8.66.17-.51.17-2.21.17-4.92l.17-4.75.34-13.92v-6.45c-1.19-2.89-2.38-5.09-3.9-6.28-.34-.51-.51-1.19-.51-1.87,0-1.19.68-2.38,1.87-3.23,1.19-.51,2.21-.85,3.23-.85,3.23,0,10.53,3.23,15.11,6.79,2.21,1.7,3.23,3.23,2.89,4.41-.51,1.87-1.02,4.75-1.19,9,3.23-2.04,5.09-3.23,5.94-3.39l2.21-1.19c2.21-1.19,3.74-1.7,4.75-1.7,2.72,0,4.07,2.89,4.07,6.79,0,3.4-1.36,6.62-3.9,7.3-7.81,3.57-12.39,5.77-13.75,6.45,0,3.06,0,5.77-.17,7.64l14.43-8.49c4.75-2.72,6.96-4.07,6.79-3.9-1.02-7.81-1.53-14.09-1.53-18.84,0-6.28.51-10.36,1.36-12.05l1.19-2.72c0-.17,0-.34.17-.51,0-1.36,1.7-4.75,3.23-5.6.51-.17.85-.34.85-.34.85,0,1.53.34,2.38,1.19,6.45,6.28,9.51,10.19,8.66,12.05-.85,1.87-1.87,3.57-3.06,4.92-.34.34-.51,1.02-.68,1.87l-.17,1.87.17,2.21ZM249.06,137.24c-3.23,0-5.26-2.55-6.62-4.58-.85-1.02-1.36-1.7-1.53-2.04-4.75,4.75-6.62,9.51-8.15,16.13,8.83,2.04,14.94,3.23,18.17,3.23.85,0,1.36-.17,1.36-.51-.17-1.02-.17-5.26-.17-13.07-1.19.51-2.21.85-3.06.85ZM270.45,64.24l-7.47,4.24-3.9,2.04c3.57,3.06,5.26,5.43,5.26,7.13,0,.34-.17.85-.51,1.19l-17.83,18.17c5.43-2.38,9.68-4.41,12.9-5.94,6.96-10.87,11.54-17.15,14.09-18.84-1.02-2.55-1.87-5.26-2.55-7.98ZM252.12,116.7c5.77-3.57,10.19-6.79,13.75-10.02l-3.06-1.7c-.85-.51-1.53-1.19-2.04-1.7l-8.66,13.41Z"/>
        <path class="cls-3" d="M482.16,15.69c2.55,0,5.43.68,8.66,1.87,7.3,2.72,12.9,7.81,12.05,11.88-.85,3.9-2.89,6.11-4.24,6.62l-.85.17c-.17.85-.17,1.53-.17,2.38s0,1.87-.17,2.72l-.51,11.71c-.34,7.13-.51,14.26-.51,21.56v9.17c0,16.98.34,30.56,1.19,40.74l.17,4.58c.34,7.3.51,13.58.51,18.84,0,9-.68,15.62-2.04,19.69-2.72,7.47-5.43,9.85-10.7,9.34-5.09-.17-10.7-4.75-12.9-8.83l-1.53-2.72c-6.11-7.47-10.53-11.71-13.41-13.24-3.4-1.87-5.43-3.57-5.94-4.75l-.17-.34c0-.17.17-.34.68-.34s1.02,0,1.36.17c.17,0,.34,0,.51.17,7.81,2.21,13.58,3.4,16.98,3.4,2.89,0,4.58-.85,4.75-2.21.17-5.26-.17-42.1-1.36-110.18-6.45,16.47-10.53,26.99-11.71,31.92l-.34.85c1.19,1.7,1.7,3.57,1.7,5.6,0,.85,0,1.19-.17,1.53-.34,1.87-.51,4.92-.51,9.17,0,3.74,0,6.45.17,8.49l.17,6.28c0,3.73-.34,7.3-1.19,10.87-1.19,4.41-3.39,7.47-6.62,7.47-5.94,0-10.02-5.77-10.19-12.22-3.06,2.55-6.79,4.75-10.7,6.11l-1.7,36.84-.51,1.02c-2.04,3.91-4.41,6.45-7.47,7.64-1.53.68-3.23,1.02-4.58,1.02-5.6,0-8.15-2.72-8.15-8.15,0-1.7.17-3.4.68-5.09.34-1.53.51-6.79.51-15.96v-10.36l-7.98,2.72c-1.53,10.02-4.75,18.68-9.34,26.14-2.55,4.07-5.09,6.96-8.15,8.83-6.79,4.41-13.41,7.3-19.52,8.49-.85.17-1.7.34-2.89.34s-1.7-.34-1.7-1.02c0-.51.51-1.36,1.53-2.55,7.98-8.49,19.01-23.94,20.2-29.88l.34-1.7c-3.06,1.53-6.11,2.21-8.83,2.21-6.11,0-10.7-3.9-13.24-7.98-.85-1.53-1.36-3.06-1.36-4.24,0-3.06,2.38-5.26,7.3-6.28l17.32-6.28c-.17-2.72-.68-4.24-1.36-4.92-1.02-1.19-1.53-2.55-1.53-4.07,0-2.38,1.36-3.73,3.06-3.73.34,0,1.02.17,1.87.34,6.28,1.36,10.7,3.73,12.9,6.96l11.04-4.24c-.34-4.75-1.19-7.81-2.72-9l-1.7-1.7c-3.57.85-5.77,1.36-6.45,1.87-2.21,1.02-4.24,1.53-6.62,1.53-6.79,0-13.92-4.41-15.96-8.83-.34-.68-.51-1.19-.51-1.7,0-1.87,1.87-3.23,5.43-3.73l21.39-5.94,10.02-19.86c-4.75-.17-7.81-.51-9.17-.68-1.19.85-2.55,1.87-4.07,2.89-.34,1.36-.85,4.92-1.36,10.53l-.34,3.4c-.17,1.7-1.7,4.07-3.57,5.43-.51.34-1.02.51-1.87.51-1.87,0-3.4-1.36-4.92-4.24-.51-1.36-1.19-3.74-1.87-6.96-2.55,1.53-4.75,3.06-6.62,4.41-2.89,1.87-5.26,2.72-7.13,2.72-3.57,0-5.43-3.57-5.43-8.49s.85-7.98,2.04-10.02c1.02-1.19,1.87-1.7,2.38-1.7.34,0,.85.34,1.7,1.19.51.85.85,1.19,1.19,1.19l10.19-1.87c-.85-6.79-1.53-10.53-1.87-11.37-1.19-1.19-2.21-3.23-2.21-5.09,0-.85,0-1.7.51-3.06,1.53-3.23,3.23-4.75,5.43-4.75,1.36,0,2.55.68,3.74,1.7l4.58,4.41c2.21,1.87,3.4,3.23,4.07,4.24l1.53,1.36c.85.68,1.7,1.53,2.21,2.72.17.17.17.68.17,1.19,0,1.02-.17,2.38-.68,4.07l-1.02,3.06h1.53l14.26-5.6,1.53-.51c4.75-9.68,7.3-15.11,7.47-15.79l-.17-1.87v-1.7c0-3.73-.17-7.64,3.06-6.28,3.9,1.36,8.15,4.24,11.03,8.83.51,1.19.85,2.21.85,3.4,0,1.53-.34,2.89-1.02,4.07l-2.21,4.24c1.87,0,3.06.51,4.24,1.7l.68.51,1.7,1.36,2.55,2.55c.51,1.02,1.02,1.87,1.19,2.55v1.36c0,.34-.17.85-.34,1.36-1.7,3.91-4.07,5.94-6.79,5.94-.51,0-1.36-.17-2.72-.68-1.53-.68-4.24-1.36-8.32-1.87-4.07,7.13-8.15,12.73-11.88,16.81.85-.17,2.04-.17,3.74-.17,4.24,0,7.3.68,8.83,1.87.17.17,1.02.68,2.38,1.87,1.87,1.36,3.06,2.38,3.57,3.23.34.51.51.85.51,1.02,0,1.36-1.87,2.72-5.26,4.24-2.21.85-6.11,2.21-11.88,3.74,4.07,2.21,7.13,5.09,9.68,8.66,2.38-.34,4.41-.51,6.28-.51,3.06,0,5.26.34,6.96,1.19l-.51-14.09c-.17-1.87-.17-4.41-.17-7.64,0-5.6.51-9,1.53-9.85,1.19-1.53,3.06-2.21,5.09-2.21.85,0,1.7,0,2.21.17,1.53.51,2.89,1.53,3.9,2.89v.17c10.53-28.01,16.64-43.12,18.34-44.99.68-2.72,2.89-3.9,6.28-3.9Z"/>
        <path class="cls-3" d="M613.9,40.47l-1.02-1.7c-1.19-1.53-2.38-3.23-2.38-4.58,0-.51.17-1.02.51-1.53.51-.51.85-1.19,1.36-1.87.51-1.19,1.02-1.87,2.38-2.89,1.19-1.19,2.55-1.87,4.75-1.87.68,0,1.53.17,2.38.51,7.13,1.7,10.87,6.45,10.19,11.2l-.68,4.24c-.68,3.4-1.19,6.79-1.53,10.02-.17,2.04-.34,3.23-.17,3.74.17.51.17,2.04.17,5.09,0,5.09-.17,13.58-.51,25.47,7.81-8.32,11.71-13.24,12.05-15.11,0,.17.17-.51.34-1.7,0-1.36.17-2.38.85-3.23.51-1.02,1.53-1.53,3.06-1.53,5.09,0,13.07,4.07,13.58,7.81.51,5.94-1.19,10.02-7.3,13.41-6.96,4.24-11.37,6.62-13.41,7.64,5.43,3.06,8.83,5.09,10.02,6.11l2.55,2.38c1.87,1.53,3.73,4.24,4.41,6.45.51,1.36.68,2.38.68,3.23,0,2.89-2.55,7.13-7.64,7.13-3.06,0-5.77-.51-7.81-1.87-.68-.51-1.53-1.19-2.04-1.7-.17-.17-1.36-1.53-3.9-3.91-.85-.85-2.72-2.72-5.77-5.6.17,14.26,1.02,23.43,2.72,27.33,3.06,7.47,5.6,10.02,10.87,10.02,1.36,0,2.38,0,3.06-.17,8.66-1.19,10.7-2.89,12.05-10.87.17-1.87.51-5.09.68-10.36l.51-12.05c.17-3.4.34-4.92.85-5.09.34-.17.68,0,.85.17.34.68.51,1.53.51,2.89,0,.85,0,1.7.17,2.21v2.21c0,3.4,3.39,15.62,5.09,20.2.85,2.21,1.53,3.73,2.21,4.24,6.11,5.43,9,9.51,9,12.22,0,2.04-1.7,5.94-4.92,9.68-3.57,4.07-10.19,7.81-16.98,8.32-3.23.17-5.77.34-7.3.34-29.2,0-32.26-18-34.97-32.94-1.36-7.3-2.04-14.26-2.04-21.05,0-5.26.34-13.07,1.02-23.43-1.53,1.53-3.06,2.89-4.24,4.41-.85,19.01-2.38,31.41-4.41,36.84-3.39,8.66-9.51,14.6-18,17.49-3.39,1.02-6.79,1.87-9.68,2.21-.68,13.58-3.57,20.37-8.32,20.37-4.24,0-8.49-3.23-13.24-10.02-1.87-2.55-3.06-3.9-3.9-4.41-2.72-1.87-8.15-7.47-8.83-9.85-.34.17-1.02.34-2.04.34-4.92,0-7.3-2.72-10.02-6.62-1.53-1.87-2.38-4.07-3.23-6.28-.17-.51-.34-1.19-.34-2.04,0-1.36.68-2.38,1.87-3.06,7.47-4.24,17.49-10.53,29.88-18.84.17-2.89.17-6.79.17-12.22l-5.26,2.38-2.89-.85c-3.06-.68-9-4.41-11.03-7.81-1.53-2.72-2.55-4.75-3.06-6.96-.17-.17-.17-.68-.17-1.19,0-2.21,2.89-4.07,6.28-4.75,3.9-.85,9.51-3.23,17.15-7.47l.34-41.08c-.68-1.36-1.02-2.55-1.02-4.07,0-.68,0-5.43,3.23-6.11.51,0,1.02-.17,1.53-.17,4.07,0,9.68,2.04,13.41,5.43,1.87,1.87,2.89,3.74,2.89,5.94,0,2.55-.34,5.09-.85,7.98-.68,2.55-1.02,3.9-1.02,4.75l-.34,18.84c4.92.17,6.96,5.77,6.96,11.54v2.89c-.51,2.21-2.04,4.58-4.58,7.13h2.72c4.07.17,7.13.68,9.17,1.7-.17-12.9-.17-20.2-.34-21.73,0-1.19-.51-2.04-1.7-4.58-.68-1.19-1.02-2.38-1.02-3.4s.34-1.7,1.02-2.21c1.87-1.53,4.07-2.38,6.45-2.38,4.07,0,8.32,3.06,10.7,6.28,1.53,2.21,2.21,5.26,2.21,9.34,0,5.09-.17,11.37-.34,18.67,1.53-1.02,3.06-1.87,4.07-3.06,1.19-27.5,1.7-41.76,1.36-42.61ZM557.54,130.28c-4.41,4.07-7.64,7.3-9.68,9.17-2.21,2.04-4.07,4.24-5.26,6.11l1.7.68c5.6,2.38,9.51,3.57,11.54,3.57,1.19,0,1.7-.34,1.7-1.19v-1.36c-.17-.85-.17-2.04-.17-3.9l.17-13.07ZM591.33,98.87c-7.13-.17-11.54-2.89-14.94-8.83v1.7c-.17,1.36-.34,3.57-.34,6.28,2.72-1.7,4.41-1.87,4.41-.51s-1.7,4.92-4.58,10.87c-.17,1.7-.17,4.58-.17,8.32l15.45-15.28.17-2.55ZM585.72,124.34c-1.36,2.89-4.07,4.41-6.96,4.41-1.19,0-2.04-.34-2.89-.85l.34,18.17c6.62-6.96,10.87-16.13,13.07-27.33-1.87,2.55-3.06,4.41-3.57,5.6Z"/>
        <path class="cls-3" d="M806.77,34.02c1.87-4.07,3.9-5.94,6.45-5.94,1.19,0,2.38.17,3.91,1.02,1.19.85,2.21,1.36,2.72,1.53,5.26,2.72,10.02,6.96,8.83,10.19-1.87,4.75-8.49,8.83-13.24,8.83-2.72,0-5.09-.34-7.81-.34-5.09,0-8.32.17-9.51.68-1.19.51-2.72,1.02-4.58,1.53.17,2.89.51,7.47,1.19,13.92l3.74-3.23c.34-.34.68-.51,1.02-.68.85-.85,5.09-2.38,7.13-2.38,4.41,0,7.81,3.9,9.68,6.11.85,1.19,1.36,2.38,1.36,3.39,0,1.53-.85,3.06-2.72,4.75-1.87,1.87-5.09,4.41-10.19,8.32l-6.79,5.26c1.87,9.34,3.23,16.13,4.24,20.37,3.9-6.79,6.11-11.88,6.28-15.11,0-3.39,1.19-5.09,3.56-5.09,2.55,0,8.32,3.06,11.21,6.28,1.53,1.87,1.87,3.57,1.87,5.43s-.51,3.74-1.53,5.6c-2.55,5.09-7.13,12.73-14.26,22.75,3.74,6.79,7.3,12.05,10.02,16.13,1.87,2.89,3.57,4.92,5.26,6.28,1.36,1.36,2.38,1.7,2.89.85,1.02-1.19,3.74-7.64,8.15-19.69,1.7-3.9,2.72-5.94,3.06-5.94.17,1.19.17,3.4.17,7.3,0,11.88.51,19.69,1.7,23.43,1.19,4.07,1.7,7.47,1.7,10.53,0,5.94-3.23,9.17-9.34,10.36-.34.17-.85.17-1.36.17-3.57,0-8.15-2.55-12.9-7.13-5.77-6.28-12.56-15.45-20.71-28.18-.68.68-1.36,1.19-1.87,1.36-4.58,1.53-8.15,2.72-11.03,3.9-9.85,3.4-21.39,6.79-26.14,6.79-1.7,0-2.38-.34-2.38-.85,0-.68,1.02-1.53,2.55-2.55,1.87-1.19,4.24-3.23,7.81-6.11l4.41-3.9,9.68-9.34c.68-.51,2.21-2.21,4.75-4.58l3.74-3.9c-1.7-7.13-3.57-15.28-5.6-24.28-3.9,2.21-7.13,3.39-9.34,3.39-1.19,0-2.21-.34-2.72-.85-2.21-1.53-3.74-2.89-4.41-4.24-3.9,10.19-7.64,15.45-11.88,15.45-1.02,0-1.53-.17-2.04-.34-.51-.17-1.02-.51-1.7-.68-1.87-.68-3.06-1.19-3.39-1.36l-4.24,1.53v6.62c3.57-1.53,5.77-2.38,6.45-2.55l2.89-1.02c2.89-1.19,5.6-2.04,7.81-2.38h1.19c1.19,0,2.21.17,3.06.51,4.07,1.7,6.96,4.24,6.96,6.96,0,1.19-.34,1.87-.85,2.55-2.55,4.58-5.77,6.28-9.68,5.77-2.55-.17-8.49.68-17.66,3.23l.17,29.03c.17.34.51,1.02,1.19,1.87.51,1.02.85,1.87.85,3.06,0,3.9-5.26,9.17-8.66,9.17-4.75,0-10.36-7.81-10.87-14.43,0-3.57.17-10.7.68-21.73-4.75,2.55-9.68,4.92-14.94,7.81-1.36.85-2.89,1.36-4.75,1.36-5.09,0-7.81-4.75-7.81-8.66,0-1.87,1.19-3.39,3.74-3.9,1.87-.51,10.02-3.74,24.11-9.85l.34-7.3c-2.21.85-3.74,1.36-4.58,1.53-.51.51-1.19.85-1.7.85-2.21,0-5.77-3.06-8.49-6.28-3.23-4.41-7.3-15.11-7.3-22.07,0-2.55.68-4.07,1.87-4.41.17-.17.51-.17.85-.17.51,0,1.36.34,2.55.85l3.57,2.38,1.36,1.02c.51.51,1.7,2.21,3.06,5.43l10.02-7.64.51-4.07c-.85.51-2.04.51-3.57.51-2.55,0-4.75-.85-4.75-2.38,0-.85.68-1.87,2.21-3.06,2.21-1.7,9.34-5.94,21.39-12.39l-.51-.68c-1.19-2.04-4.07-16.64-4.75-23.94-.34,1.19-1.7,3.57-3.74,6.96l-2.38,4.24c2.55.17,5.6,2.89,5.6,6.11,0,1.53-.85,2.89-2.38,3.91l-2.04,1.53c-2.04,1.7-3.74,3.23-5.43,4.41-2.21,1.36-3.9,2.04-4.92,2.21-.68.17-1.19.17-1.36.34-.34.17-.85.17-1.36.17-.68,0-1.19-.17-1.7-.51-.51,2.04-2.55,3.4-5.26,3.4-.85,0-2.04-.17-3.4-.68-3.06-1.36-5.6-10.87-7.13-18.17l-.68-3.91c-.34-1.19-.51-2.21-.51-2.89,0-1.02.68-1.53,2.04-1.53l3.23.34c2.89.17,6.45,3.73,10.53,10.7.68-.17,1.02-.51,1.19-.68l4.58-12.22c-.85.17-1.87.17-3.06.17-2.89,0-4.24-.85-4.24-2.38,0-1.36.85-2.72,2.38-4.41l11.54-11.2.34-.17c0-.34,1.87-1.53,3.39-1.53.85,0,1.7.34,2.55,1.02,2.72,2.04,4.24,3.57,4.58,4.07,2.55,0,4.08,1.02,4.41,2.89.51,1.7,1.02,7.47,1.7,16.81l.85-.51,8.15-12.05c-.51.17-1.19.34-2.04.34-1.19,0-2.21-.51-3.06-1.53-.85-1.19-1.53-1.87-1.7-2.89l-.17-.51c0-.85.68-1.7,1.87-2.89,5.09-4.07,12.73-9.34,15.62-9.51,2.38,0,4.75.51,7.13,1.7,1.19.85,2.04,1.53,2.55,2.04.17-7.81,1.19-11.71,3.23-12.05.51-.17,1.36-.17,2.21-.17,4.41,0,7.81,1.02,10.7,3.57,1.53,1.36,2.21,3.06,2.21,4.75,0,.85,0,1.36-.17,1.7-1.53,9.17-2.38,16.98-2.38,23.43,8.15-6.96,12.56-11.37,13.24-12.73ZM728.67,106l.17-4.07c-2.89,1.36-4.75,1.87-6.28,1.7l2.04,5.26,4.08-2.89ZM753.12,72.73c-3.56,1.19-6.96,2.55-10.7,4.07,1.02.85,1.7,1.87,2.04,3.4v.17c2.72.17,4.92.85,6.45,1.7l2.21-9.34ZM749.04,89.54c-1.19,1.19-2.55,2.04-4.24,2.72l-.34,6.28c1.02-.17,1.87-.17,2.38,0l2.21-9ZM780.45,77.99c-1.02-6.45-1.53-11.88-1.53-16.3l-.51-15.79-.68-14.94c-.34.51-1.02,1.36-2.04,2.21-1.87,1.36-7.47,8.49-8.66,11.88,1.02.17,1.7.51,2.04,1.02,1.02,1.53,1.53,3.06,1.53,4.75,0,2.89-1.02,3.57-3.56,4.75l-2.89,1.02-8.15,3.23c-2.55,1.02-4.08,1.53-4.58,1.36l-2.55-.34v2.04c0,1.36,0,2.38-.17,2.55q-.17,0-.17.17l6.96-2.04.51-.34c.51-.17,2.38-1.36,3.56-1.53.34-.17.85-.17,1.53-.17,1.02,0,2.21.34,3.05.85,7.47,4.07,10.19,7.13,10.19,10.87,0,1.36-.34,3.06-1.02,5.09-.85,2.21-1.36,3.73-1.53,4.58l-1.53,3.9,10.19-8.83Z"/>
        <path class="cls-3" d="M907.27,44.38l18.17-5.77c2.04-5.77,3.06-10.02,3.06-12.22,0-1.02-.17-1.7-.68-2.04-2.89-2.04-5.43-5.6-5.43-8.32,0-3.23,4.75-3.06,7.64-3.06,7.98,0,21.22,11.04,22.58,17.83l7.3-2.04c5.26-1.19,10.53-2.38,15.79-3.23,1.87-.34,3.57-.51,4.75-.51,2.89,0,4.92.68,6.28,2.04,1.53,1.53,3.23,3.06,5.09,4.41,1.7,1.19,2.72,2.55,3.56,3.74.51.68.68,1.7.68,2.72,0,.68-.17,1.19-.34,1.53-1.19,3.74-5.26,4.92-13.75,5.6-7.47.51-12.05,1.19-14.09,1.7,1.53,2.04,2.21,3.9,2.21,5.77s-.68,3.23-2.21,3.9c-1.19.34-4.41,1.19-9.68,2.38l-.51,2.21c.68-.17,1.36-.17,2.55-.17,5.43,0,9.17,3.06,9.17,6.28,0,1.19-.51,1.87-1.7,2.38-1.19.51-3.57,1.02-7.13,1.87-1.53.17-2.55.51-3.23.68,0,2.04-.17,3.9-.34,5.6l25.13-6.28c.34-.17,1.02-.17,2.04-.17,3.23,0,7.13,1.02,9.34,3.23,2.04,2.04,3.23,3.9,3.23,6.11,0,1.36-.85,4.75-3.39,4.75-.51,0-1.02,0-1.36-.17-1.02-.34-2.72-.34-4.92-.34-4.24,0-10.87.34-19.69,1.36,19.18,15.11,24.45,15.96,42.78,23.09,3.57,1.36,5.94,3.06,7.13,4.75.51.85.68,1.7.68,2.55,0,2.04-2.04,3.06-3.9,2.38-1.19-.51-4.58.51-10.19,2.55-2.04.85-8.15,2.04-13.41,2.21h-1.36c-2.04,0-3.39-.34-4.07-1.02-1.53-1.87-8.15-8.83-19.52-20.88-.17,2.04-.34,3.9-.34,5.6,0,5.77.68,12.73,1.36,15.45.68,3.23,1.53,15.11,1.53,21.56,0,4.07,0,5.43-3.91,6.62,6.28,4.24,10.02,7.47,11.21,10.02,1.87,2.89,2.72,5.6,2.72,8.15,0,4.41-3.06,7.47-9,7.47-4.75,0-8.49-3.06-12.22-9.51-.85-1.87-2.72-4.41-5.43-7.47-3.39-3.73-5.94-6.62-7.3-9.17-1.19-1.87-1.87-3.74-1.87-5.6,0-2.89,1.53-4.92,4.24-4.07-.34-.85-.51-1.7-.51-2.55l-.34-13.07c-10.18,3.74-16.64,5.77-19.52,6.28,0,1.53,0,2.72-.17,3.4,4.58-2.38,7.98-3.74,10.53-3.74,2.04,0,4.07,2.04,4.07,4.58,0,1.53-.85,2.72-2.38,3.57-4.24,2.72-7.3,5.77-9,9.17-2.04,3.4-16.13,15.62-21.9,19.52-5.09,3.4-8.32,5.26-9.34,5.26-.34,0-.51-.17-.51-.34s.17-.68.68-1.36l.51-.51c1.53-1.87,5.26-6.45,11.37-13.41.85-1.19,1.7-2.04,2.55-2.89l3.56-4.07-.68.34-1.87.51c-1.19.51-2.04.68-2.55.85-.68.34-2.38.85-5.43,1.36-.51.17-1.19.17-2.21.17-.85,0-1.53-.17-1.7-.34-1.36-1.19-2.04-2.38-2.04-3.57,0-1.53.85-2.38,2.72-3.23.68-.17,3.06-1.19,6.79-3.06l3.57-1.7c0-1.19,0-2.38.17-3.4.17-1.02.17-2.04.17-3.23.51-7.13,1.19-16.47,2.21-28.52-4.92,5.77-9.85,11.2-15.11,16.3-4.58,4.07-5.94,5.09-9.34,6.45-1.7.85-3.74,1.53-6.28,2.21l-5.6,1.53c-3.9,1.02-8.66,2.04-10.19,2.21-.17.17-.51.17-.85.17s-.51-.17-.51-.34.68-1.02,1.87-2.04c4.24-3.74,10.19-7.47,18-11.71,6.11-3.06,13.75-10.7,22.41-22.75l-11.2,4.07c-.51.17-1.53.51-3.23,1.36-3.23,1.53-4.58,2.04-6.96,2.04-2.72,0-7.3-1.87-7.3-4.75,0-1.87,1.53-3.4,4.75-4.92,1.87-1.02,11.37-3.9,29.03-8.32,0,.17.17-1.36.34-4.07-2.21.68-4.08,1.19-5.77,1.19-3.06,0-4.75-1.53-4.75-3.57,0-2.21,1.02-3.57,3.57-4.07l7.81-2.55.51-4.41-1.36.17c-.85,0-1.53-.17-2.04-.51-2.72-1.36-3.9-3.23-3.9-5.26,0-1.7.85-2.89,2.89-4.07l2.72-1.19c1.02-.34,1.87-.68,2.89-1.19.17-3.06.34-5.94.85-8.15-3.74,2.89-7.13,4.24-9.85,4.24-1.87,0-3.57-.51-5.09-1.7-2.38,10.19-4.41,16.98-6.28,20.03-.17.51-.68,1.53-1.36,2.21l-1.19,1.36c-.34.51-.85.85-1.36.85-.85.17-1.19.34-1.36.51h-.85c-1.36,0-2.21,0-2.38-.17l-1.87-.34c-1.53,0-2.21-.17-2.21-.17-2.72-.17-4.07-2.89-4.07-5.6,0-.51,0-1.02.17-1.36l.34-1.87,11.2-22.41c1.36-2.89,2.21-4.41,3.57-5.77.68-.68,1.36-1.02,2.04-1.02,1.7,0,3.56,1.87,5.6,6.28l3.73-1.36ZM944.79,99.21c-3.56.68-6.45,1.7-8.49,3.06-.34.17-1.02.51-2.04,1.36-2.21,1.53-3.57,2.38-4.24,2.55-.85.34-1.53.51-2.04.51s-1.36-.17-2.21-.51c-1.87-1.19-2.72-2.89-2.72-4.75,0-2.55,1.36-3.23,5.43-4.75,1.19-.51,2.04-.85,2.38-1.19l2.72-1.02c.51-.17,1.36-.34,2.21-.85l1.7-.51.34-.17c1.19-1.19,2.55-2.04,4.41-2.89l-4.41,1.02c-5.09,1.02-9.68,2.38-13.75,3.57-.68,1.87-2.72,4.58-5.77,8.49,2.89,1.53,6.62,5.94,7.81,9.34,7.81-3.91,12.22-5.94,13.24-5.77,3.23,0,5.09.17,5.6.51l-.17-7.98ZM937.15,42.34c-7.3,1.7-12.39,3.57-14.94,5.43,5.26,1.53,8.66,3.4,9.68,5.6,1.36-.51,3.39-1.36,5.94-2.21,0-3.74-.17-6.79-.68-8.83ZM945.3,114.66c-3.39,0-6.62.17-9.51.68-1.87.34-2.72.68-2.89,1.02-.85,1.02-2.89,2.04-6.45,3.23v4.41c9.85-4.41,16.13-6.45,18.85-5.94v-3.4ZM937.32,76.97c-3.05.68-5.43,1.19-6.79,1.36,0,2.89,0,4.92-.17,6.28,4.07-1.19,7.3-1.87,9-2.38-1.02-1.87-1.53-3.57-2.04-5.26ZM931.38,64.07l-.51,5.94,6.96-2.38.17-4.75-6.62,1.19ZM954.47,45.4l1.7-.34,2.89-.85c1.53-.51,2.89-.85,3.74-.85.85.17,1.53.51,2.04.68,2.89-3.06,5.43-6.11,7.47-8.66l1.36-1.7c-12.56,2.72-21.39,4.92-26.14,6.11,2.72,1.53,4.92,3.23,6.96,5.6ZM952.6,88.18c-.85.17-2.38.34-4.41.85,1.36.17,2.38.68,3.06,1.36,1.36,1.19,4.08,2.55,7.64,4.41-4.07-4.07-6.11-6.45-6.28-6.62Z"/>
      </g>
      <g class="cls-1">
        <path class="cls-3" d="M67.67,252.88v7.15c0,9.66-6.89,21.94-19.1,21.94h-16.35c-3.73,0-6.35-1.03-8.39-2.43-2.75,1.92-6.25,3.04-10.32,3.04v-63.25c0-9.35,6.33-16.97,16.32-17.36.2-.01.4-.02.61-.02h12.63c10.5,0,21.84,9.36,21.84,20.91s-1.68,11.28-3.84,15.06c4.59,3.76,6.6,9.03,6.6,14.95ZM51.3,259.58v-4.37c0-3.68-3.18-6.88-6.68-6.68h-13.98v17.13c0,.2,0,.4-.01.6h14c3.5-.2,6.68-2.99,6.68-6.68h0ZM30.64,217.41v16.6h12.43c3.03,0,5.49-2.46,5.49-5.49v-5.6c0-3.03-2.91-5.5-5.94-5.5h-11.98Z"/>
        <path class="cls-3" d="M130.39,281.49c-9.48,2.31-18.88-2.86-21-11.56l-.92-3.77-.39-1.88h-16.53l-.39,1.88-.92,3.77c-2.12,8.7-11.52,13.87-21,11.56l16.98-68.26c1.04-4.25,3.39-7.22,7.07-9.33,1.97-1.12,4.16-1.76,6.53-1.76s4.56.63,6.53,1.76c3.68,2.11,6.03,5.07,7.07,9.33l16.98,68.26ZM105.13,250.1l-5.31-25.53-5.31,25.53h10.63Z"/>
        <path class="cls-3" d="M192.29,202.8v63.35c0,6.67-4.09,12.47-10.1,15.39-2.53,1.37-5.44,2.24-8.52,2.53-2.35.22-3.52.36-7.55.41-1.12.01-2.1.02-2.84.02-3.25,0-6.33-.18-9.21-.43-4.91-.43-9.38-1.96-12.59-5.11-.4-.34-.76-.68-1.09-1.04-3.1-3.1-4.99-7.23-4.99-11.77v-63.35c3.31,0,6.42.78,9.12,2.14,5.87,2.96,9.85,8.69,9.85,15.27v43.08c0,1.25.48,2.49,1.41,3.32.82.72,1.89,1.14,3.2,1.14h0s7.44.02,7.44.02h0s2.29.02,2.29.02l.02-.04s.05,0,.07,0c2.51-.03,4.5-2.15,4.5-4.66v-42.88c0-6.71,4.13-12.52,10.18-15.43,2.63-1.26,5.62-1.98,8.79-1.98Z"/>
        <path class="cls-3" d="M261.05,202.21v63.54c0,9.65-8.52,17.47-19.03,17.47v-32.15h-22.03v14.68c0,9.65-8.52,17.47-19.03,17.47v-46.83c-.06-.67-.1-1.35-.1-2.03h.1v-14.68c0-9.65,8.52-17.47,19.03-17.47v32.15h22.03v-14.68c0-9.65,8.52-17.47,19.03-17.47Z"/>
        <path class="cls-3" d="M286.13,202v63.3c0,9.41-8.31,17.04-18.56,17.04v-63.31c0-9.41,8.31-17.04,18.56-17.04Z"/>
        <path class="cls-3" d="M360.03,202.03v62.97c0,9.57-8.17,17.42-17.74,17.42v-6.29l-32.31-43.25v32.2c0,9.57-7.76,17.33-17.33,17.33v-63.05c0-9.57,7.76-17.34,17.33-17.34l32.31,46.59v-29.25c0-9.57,8.17-17.34,17.74-17.34Z"/>
        <path class="cls-3" d="M387.28,202v63.3c0,9.41-8.31,17.04-18.56,17.04v-63.31c0-9.41,8.31-17.04,18.56-17.04Z"/>
        <path class="cls-3" d="M451.25,281.49c-9.48,2.31-18.88-2.86-21-11.56l-.92-3.77-.39-1.88h-16.53l-.39,1.88-.92,3.77c-2.12,8.7-11.52,13.87-21,11.56l16.98-68.26c1.04-4.25,3.39-7.22,7.07-9.33,1.97-1.12,4.16-1.76,6.53-1.76s4.56.63,6.53,1.76c3.68,2.11,6.03,5.07,7.07,9.33l16.98,68.26ZM425.99,250.1l-5.31-25.53-5.31,25.53h10.63Z"/>
        <path class="cls-3" d="M470.51,265.07v-45.76c0-.08,0-.15,0-.23h0c0-10.09,6.14-16.67,15.18-17.15v-.03h34.44v4.56c0,8.34-5.79,14.7-14.88,14.7v-2.09h-11.71c-2.4.26-4.59,2.18-4.98,4.63-.04.25-.07.51-.07.77v5.54c0,.28.03.56.07.84v30.03c.4,2.6,2.09,4.42,4.8,4.42h27.19c0,10.47-7.79,17.18-17.4,17.18h-15.32l-.04-.07c-3.9-.32-7.45-1.72-10.31-3.87-2.36-1.77-4.32-4.05-5.53-6.66-.92-2.09-1.43-4.39-1.43-6.8Z"/>
        <path class="cls-3" d="M586.67,202.21v63.54c0,9.65-8.52,17.47-19.03,17.47v-32.15h-22.03v14.68c0,9.65-8.52,17.47-19.03,17.47v-46.83c-.06-.67-.1-1.35-.1-2.03h.1v-14.68c0-9.65,8.52-17.47,19.03-17.47v32.15h22.03v-14.68c0-9.65,8.52-17.47,19.03-17.47Z"/>
        <path class="cls-3" d="M651.93,281.49c-9.48,2.31-18.88-2.86-21-11.56l-.92-3.77-.39-1.88h-16.53l-.39,1.88-.92,3.77c-2.12,8.7-11.52,13.87-21,11.56l16.98-68.26c1.04-4.25,3.39-7.22,7.07-9.33,1.97-1.12,4.16-1.76,6.53-1.76s4.56.63,6.53,1.76c3.68,2.11,6.03,5.07,7.07,9.33l16.98,68.26ZM626.67,250.1l-5.31-25.53-5.31,25.53h10.63Z"/>
        <path class="cls-3" d="M674.82,263.31h32.39c0,10.34-7.7,18.73-17.19,18.73h-33.93c0-.06,0-.12,0-.18h0v-62.53c0-9.49,8.38-17.19,18.73-17.19v61.17Z"/>
        <path class="cls-3" d="M731.85,263.31h32.39c0,10.34-7.7,18.73-17.19,18.73h-33.93c0-.06,0-.12,0-.18h0v-62.53c0-9.49,8.38-17.19,18.73-17.19v61.17Z"/>
        <path class="cls-3" d="M786.52,263.15h30.28c0,10.43-8.01,18.89-18.44,18.89h-12.34c-9.96,0-18.03-8.07-18.03-18.03v-43.66c0-10.18,8.25-18.44,18.44-18.44h34.47c0,10.43-6.84,18.89-17.27,18.89h-17.1v12.13h22.53l-4.14,17.52h-18.4v12.71Z"/>
        <path class="cls-3" d="M890.84,202.03v62.97c0,9.57-8.17,17.42-17.75,17.42v-6.29l-32.31-43.25v32.2c0,9.57-7.76,17.33-17.34,17.33v-63.05c0-9.57,7.76-17.34,17.34-17.34l32.31,46.59v-29.25c0-9.57,8.17-17.34,17.75-17.34Z"/>
        <path class="cls-3" d="M899.52,264.77v-45.41c0-.08,0-.15,0-.23h0c0-10.01,6.09-16.54,15.06-17.01v-.03h34.17v4.53c0,8.27-5.75,14.59-14.76,14.59v-2.07h-11.62c-2.38.26-4.55,2.17-4.94,4.59-.04.25-.07.5-.07.76v5.49c0,.28.03.56.07.83v29.8c.4,2.58,2.07,4.39,4.76,4.39h18.14v-12.03c0-.58.04-1.12.09-1.63-7.13-1.31-11.66-6.45-11.66-14.93h16.66c13,0,11.02,12.79,11.02,17.96l-.06,12.2c0,8.13-6.11,14.16-13.21,15.47l-26.52-.06c-3.86-.31-7.39-1.71-10.23-3.84-2.34-1.76-4.29-4.02-5.49-6.61-.91-2.07-1.42-4.35-1.42-6.75Z"/>
        <path class="cls-3" d="M980.23,263.15h30.28c0,10.43-8.01,18.89-18.44,18.89h-12.34c-9.96,0-18.03-8.07-18.03-18.03v-43.66c0-10.18,8.25-18.44,18.44-18.44h34.47c0,10.43-6.84,18.89-17.27,18.89h-17.1v12.13h22.53l-4.14,17.52h-18.4v12.71Z"/>
      </g>
    </g>
    <rect class="cls-2" width="1031.48" height="297.44"/>
  </g>
</svg>